<mxfile host="app.diagrams.net" modified="2023-08-19T17:41:50.694Z" agent="Mozilla/5.0 (X11; Linux x86_64) AppleWebKit/537.36 (KHTML, like Gecko) Chrome/118.0.0.0 Safari/537.36" etag="90UpxYgAB35ODuBp7EdW" version="21.6.8" type="github">
  <diagram name="Page-1" id="10a91c8b-09ff-31b1-d368-03940ed4cc9e">
    <mxGraphModel dx="1434" dy="798" grid="1" gridSize="10" guides="1" tooltips="1" connect="1" arrows="1" fold="1" page="1" pageScale="1" pageWidth="1100" pageHeight="850" background="none" math="0" shadow="0">
      <root>
        <mxCell id="0" />
        <mxCell id="1" parent="0" />
        <mxCell id="62893188c0fa7362-2" value="" style="whiteSpace=wrap;html=1;rounded=0;shadow=1;labelBackgroundColor=none;strokeWidth=1;fontFamily=Verdana;fontSize=12;align=center;fillColor=#dae8fc;strokeColor=#6c8ebf;sketch=1;curveFitting=1;jiggle=2;" parent="1" vertex="1">
          <mxGeometry x="105" y="60" width="915" height="140" as="geometry" />
        </mxCell>
        <mxCell id="xX52NRWyYrMD9gy6yuDu-185" style="edgeStyle=orthogonalEdgeStyle;rounded=0;orthogonalLoop=1;jettySize=auto;html=1;exitX=0.5;exitY=1;exitDx=0;exitDy=0;entryX=0;entryY=0.5;entryDx=0;entryDy=0;" edge="1" parent="1" source="xX52NRWyYrMD9gy6yuDu-1" target="xX52NRWyYrMD9gy6yuDu-176">
          <mxGeometry relative="1" as="geometry" />
        </mxCell>
        <mxCell id="xX52NRWyYrMD9gy6yuDu-1" value="&lt;b&gt;CFMWS0&lt;br&gt;&lt;/b&gt;&lt;br&gt;&lt;div style=&quot;text-align: left; font-size: 13px;&quot;&gt;&lt;span style=&quot;background-color: initial;&quot;&gt;&lt;font style=&quot;font-size: 13px;&quot;&gt;base: A&lt;/font&gt;&lt;/span&gt;&lt;/div&gt;&lt;div style=&quot;text-align: left; font-size: 13px;&quot;&gt;&lt;span style=&quot;background-color: initial;&quot;&gt;&lt;font style=&quot;font-size: 13px;&quot;&gt;window size: B-A&lt;/font&gt;&lt;/span&gt;&lt;/div&gt;&lt;div style=&quot;text-align: left; font-size: 13px;&quot;&gt;interleave ways: 1&lt;/div&gt;&lt;div style=&quot;text-align: left; font-size: 13px;&quot;&gt;&lt;span style=&quot;background-color: initial;&quot;&gt;target: HB0&lt;/span&gt;&lt;br&gt;&lt;/div&gt;" style="rounded=0;whiteSpace=wrap;html=1;fillColor=#f8cecc;strokeColor=#b85450;" vertex="1" parent="1">
          <mxGeometry x="190" y="60" width="150" height="140" as="geometry" />
        </mxCell>
        <mxCell id="xX52NRWyYrMD9gy6yuDu-7" value="&lt;font style=&quot;font-size: 18px;&quot;&gt;Linear host physical address space&lt;/font&gt;" style="text;html=1;strokeColor=none;fillColor=none;align=center;verticalAlign=middle;whiteSpace=wrap;rounded=0;" vertex="1" parent="1">
          <mxGeometry x="330" y="20" width="440" height="30" as="geometry" />
        </mxCell>
        <mxCell id="xX52NRWyYrMD9gy6yuDu-16" value="0" style="text;strokeColor=none;align=center;fillColor=none;html=1;verticalAlign=middle;whiteSpace=wrap;rounded=0;" vertex="1" parent="1">
          <mxGeometry x="80" y="200" width="60" height="30" as="geometry" />
        </mxCell>
        <mxCell id="xX52NRWyYrMD9gy6yuDu-17" value="A" style="text;strokeColor=none;align=center;fillColor=none;html=1;verticalAlign=middle;whiteSpace=wrap;rounded=0;" vertex="1" parent="1">
          <mxGeometry x="160" y="200" width="60" height="30" as="geometry" />
        </mxCell>
        <mxCell id="xX52NRWyYrMD9gy6yuDu-18" value="B" style="text;strokeColor=none;align=center;fillColor=none;html=1;verticalAlign=middle;whiteSpace=wrap;rounded=0;" vertex="1" parent="1">
          <mxGeometry x="310" y="200" width="60" height="30" as="geometry" />
        </mxCell>
        <mxCell id="xX52NRWyYrMD9gy6yuDu-19" value="C" style="text;strokeColor=none;align=center;fillColor=none;html=1;verticalAlign=middle;whiteSpace=wrap;rounded=0;" vertex="1" parent="1">
          <mxGeometry x="385" y="200" width="60" height="30" as="geometry" />
        </mxCell>
        <mxCell id="xX52NRWyYrMD9gy6yuDu-20" value="D" style="text;strokeColor=none;align=center;fillColor=none;html=1;verticalAlign=middle;whiteSpace=wrap;rounded=0;" vertex="1" parent="1">
          <mxGeometry x="630" y="200" width="60" height="30" as="geometry" />
        </mxCell>
        <mxCell id="xX52NRWyYrMD9gy6yuDu-21" value="E" style="text;strokeColor=none;align=center;fillColor=none;html=1;verticalAlign=middle;whiteSpace=wrap;rounded=0;" vertex="1" parent="1">
          <mxGeometry x="745" y="200" width="60" height="30" as="geometry" />
        </mxCell>
        <mxCell id="xX52NRWyYrMD9gy6yuDu-22" value="F" style="text;strokeColor=none;align=center;fillColor=none;html=1;verticalAlign=middle;whiteSpace=wrap;rounded=0;" vertex="1" parent="1">
          <mxGeometry x="920" y="200" width="60" height="30" as="geometry" />
        </mxCell>
        <mxCell id="xX52NRWyYrMD9gy6yuDu-23" value="G" style="text;strokeColor=none;align=center;fillColor=none;html=1;verticalAlign=middle;whiteSpace=wrap;rounded=0;" vertex="1" parent="1">
          <mxGeometry x="990" y="200" width="60" height="30" as="geometry" />
        </mxCell>
        <mxCell id="xX52NRWyYrMD9gy6yuDu-24" value="&lt;b&gt;CFMWS2&lt;br&gt;&lt;/b&gt;&lt;br&gt;&lt;div style=&quot;text-align: left; font-size: 13px;&quot;&gt;&lt;span style=&quot;background-color: initial;&quot;&gt;&lt;font style=&quot;font-size: 13px;&quot;&gt;base: E&lt;/font&gt;&lt;/span&gt;&lt;/div&gt;&lt;div style=&quot;text-align: left; font-size: 13px;&quot;&gt;&lt;span style=&quot;background-color: initial;&quot;&gt;&lt;font style=&quot;font-size: 13px;&quot;&gt;window size: F-E&lt;/font&gt;&lt;/span&gt;&lt;/div&gt;&lt;div style=&quot;text-align: left; font-size: 13px;&quot;&gt;&lt;span style=&quot;background-color: initial;&quot;&gt;&lt;font style=&quot;font-size: 13px;&quot;&gt;interleave ways: 1&lt;/font&gt;&lt;/span&gt;&lt;/div&gt;&lt;div style=&quot;text-align: left; font-size: 13px;&quot;&gt;&lt;span style=&quot;background-color: initial;&quot;&gt;target: HB1&lt;/span&gt;&lt;br&gt;&lt;/div&gt;" style="rounded=0;whiteSpace=wrap;html=1;fillColor=#d5e8d4;strokeColor=#82b366;" vertex="1" parent="1">
          <mxGeometry x="770" y="60" width="180" height="140" as="geometry" />
        </mxCell>
        <mxCell id="xX52NRWyYrMD9gy6yuDu-25" value="&lt;b&gt;CFMWS0&lt;br&gt;&lt;/b&gt;&lt;br&gt;&lt;div style=&quot;text-align: left; font-size: 13px;&quot;&gt;&lt;span style=&quot;background-color: initial;&quot;&gt;&lt;font style=&quot;font-size: 13px;&quot;&gt;base: C&lt;/font&gt;&lt;/span&gt;&lt;/div&gt;&lt;div style=&quot;text-align: left; font-size: 13px;&quot;&gt;&lt;span style=&quot;background-color: initial;&quot;&gt;&lt;font style=&quot;font-size: 13px;&quot;&gt;window size: D-C&lt;/font&gt;&lt;/span&gt;&lt;/div&gt;&lt;div style=&quot;text-align: left; font-size: 13px;&quot;&gt;&lt;span style=&quot;background-color: initial;&quot;&gt;&lt;font style=&quot;font-size: 13px;&quot;&gt;interleave ways: 2&lt;/font&gt;&lt;/span&gt;&lt;/div&gt;&lt;div style=&quot;text-align: left; font-size: 13px;&quot;&gt;&lt;span style=&quot;background-color: initial;&quot;&gt;target: HB0, HB1&lt;/span&gt;&lt;br&gt;&lt;/div&gt;" style="rounded=0;whiteSpace=wrap;html=1;fillColor=#fff2cc;strokeColor=#d6b656;" vertex="1" parent="1">
          <mxGeometry x="410" y="60" width="250" height="140" as="geometry" />
        </mxCell>
        <mxCell id="xX52NRWyYrMD9gy6yuDu-158" value="" style="edgeStyle=orthogonalEdgeStyle;rounded=0;orthogonalLoop=1;jettySize=auto;html=1;" edge="1" parent="1" source="xX52NRWyYrMD9gy6yuDu-155" target="xX52NRWyYrMD9gy6yuDu-157">
          <mxGeometry relative="1" as="geometry" />
        </mxCell>
        <mxCell id="xX52NRWyYrMD9gy6yuDu-155" value="&lt;pre&gt;&lt;b&gt;HB1&lt;/b&gt; (ACP0016_1)&lt;/pre&gt;" style="rounded=1;whiteSpace=wrap;html=1;fillColor=#d5e8d4;strokeColor=#82b366;" vertex="1" parent="1">
          <mxGeometry x="598" y="280" width="150" height="60" as="geometry" />
        </mxCell>
        <mxCell id="xX52NRWyYrMD9gy6yuDu-157" value="CXL/PCIe &lt;br&gt;RP/Switch topology" style="shape=trapezoid;perimeter=trapezoidPerimeter;whiteSpace=wrap;html=1;fixedSize=1;rounded=1;sketch=1;curveFitting=1;jiggle=2;" vertex="1" parent="1">
          <mxGeometry x="604.5" y="375" width="137" height="60" as="geometry" />
        </mxCell>
        <mxCell id="xX52NRWyYrMD9gy6yuDu-169" value="endpoint" style="rounded=1;whiteSpace=wrap;html=1;sketch=1;curveFitting=1;jiggle=2;" vertex="1" parent="1">
          <mxGeometry x="618" y="460" width="50" height="40" as="geometry" />
        </mxCell>
        <mxCell id="xX52NRWyYrMD9gy6yuDu-170" value="endpoint" style="rounded=1;whiteSpace=wrap;html=1;sketch=1;curveFitting=1;jiggle=2;" vertex="1" parent="1">
          <mxGeometry x="678" y="460" width="50" height="40" as="geometry" />
        </mxCell>
        <mxCell id="xX52NRWyYrMD9gy6yuDu-175" value="" style="edgeStyle=orthogonalEdgeStyle;rounded=0;orthogonalLoop=1;jettySize=auto;html=1;" edge="1" parent="1" source="xX52NRWyYrMD9gy6yuDu-176" target="xX52NRWyYrMD9gy6yuDu-177">
          <mxGeometry relative="1" as="geometry" />
        </mxCell>
        <mxCell id="xX52NRWyYrMD9gy6yuDu-176" value="&lt;pre&gt;&lt;b&gt;HB0&lt;/b&gt; (ACP0016_0)&lt;/pre&gt;" style="rounded=1;whiteSpace=wrap;html=1;fillColor=#f8cecc;strokeColor=#b85450;" vertex="1" parent="1">
          <mxGeometry x="363" y="280" width="150" height="60" as="geometry" />
        </mxCell>
        <mxCell id="xX52NRWyYrMD9gy6yuDu-177" value="CXL/PCIe &lt;br&gt;topology RP/Switch" style="shape=trapezoid;perimeter=trapezoidPerimeter;whiteSpace=wrap;html=1;fixedSize=1;rounded=1;sketch=1;curveFitting=1;jiggle=2;" vertex="1" parent="1">
          <mxGeometry x="369" y="375" width="138" height="60" as="geometry" />
        </mxCell>
        <mxCell id="xX52NRWyYrMD9gy6yuDu-178" value="endpoint" style="rounded=1;whiteSpace=wrap;html=1;sketch=1;curveFitting=1;jiggle=2;" vertex="1" parent="1">
          <mxGeometry x="413" y="460" width="50" height="40" as="geometry" />
        </mxCell>
        <mxCell id="xX52NRWyYrMD9gy6yuDu-179" value="endpoint" style="rounded=1;whiteSpace=wrap;html=1;sketch=1;curveFitting=1;jiggle=2;" vertex="1" parent="1">
          <mxGeometry x="473" y="460" width="50" height="40" as="geometry" />
        </mxCell>
        <mxCell id="xX52NRWyYrMD9gy6yuDu-180" value="endpoint" style="rounded=1;whiteSpace=wrap;html=1;sketch=1;curveFitting=1;jiggle=2;" vertex="1" parent="1">
          <mxGeometry x="353" y="460" width="50" height="40" as="geometry" />
        </mxCell>
        <mxCell id="xX52NRWyYrMD9gy6yuDu-187" value="" style="edgeStyle=segmentEdgeStyle;endArrow=classic;html=1;curved=0;rounded=0;endSize=8;startSize=8;exitX=0.5;exitY=1;exitDx=0;exitDy=0;" edge="1" parent="1" source="xX52NRWyYrMD9gy6yuDu-24">
          <mxGeometry width="50" height="50" relative="1" as="geometry">
            <mxPoint x="880" y="270" as="sourcePoint" />
            <mxPoint x="750" y="300" as="targetPoint" />
            <Array as="points">
              <mxPoint x="860" y="300" />
            </Array>
          </mxGeometry>
        </mxCell>
        <mxCell id="xX52NRWyYrMD9gy6yuDu-188" value="" style="endArrow=classic;html=1;rounded=0;entryX=0.447;entryY=0;entryDx=0;entryDy=0;entryPerimeter=0;" edge="1" parent="1" target="xX52NRWyYrMD9gy6yuDu-176">
          <mxGeometry width="50" height="50" relative="1" as="geometry">
            <mxPoint x="540" y="200" as="sourcePoint" />
            <mxPoint x="650" y="280" as="targetPoint" />
          </mxGeometry>
        </mxCell>
        <mxCell id="xX52NRWyYrMD9gy6yuDu-189" value="" style="endArrow=classic;html=1;rounded=0;entryX=0.5;entryY=0;entryDx=0;entryDy=0;" edge="1" parent="1" target="xX52NRWyYrMD9gy6yuDu-155">
          <mxGeometry width="50" height="50" relative="1" as="geometry">
            <mxPoint x="540" y="200" as="sourcePoint" />
            <mxPoint x="440" y="290" as="targetPoint" />
          </mxGeometry>
        </mxCell>
      </root>
    </mxGraphModel>
  </diagram>
</mxfile>
